<svg width="10" height="9" viewBox="0 0 10 9" fill="none" xmlns="http://www.w3.org/2000/svg">
<path d="M5.26748 1.7948L5.25716 1.79144L5.26749 1.7948C5.26744 1.79495 5.26739 1.7951 5.26734 1.79524L5.26748 1.7948ZM5.68357 1.48578C5.46841 0.823596 4.53159 0.823587 4.31643 1.48578L3.73867 3.26393H1.86902C1.17275 3.26393 0.883248 4.1549 1.44655 4.56416L2.95913 5.66312L2.38137 7.44127C2.16622 8.10345 2.92412 8.65412 3.48742 8.24485L5 7.1459L6.51258 8.24485C7.07588 8.65411 7.83378 8.10345 7.61863 7.44127L7.04087 5.66312L8.55345 4.56416C9.11674 4.15491 8.82726 3.26393 8.13098 3.26393H6.26133L5.68357 1.48578Z" fill="#BBC9E0" stroke="#131C2E"/>
</svg>
